<?xml version="1.0" encoding="UTF-8"?>
<svg id="Ebene_1" xmlns="http://www.w3.org/2000/svg" version="1.1" viewBox="0 0 243.37 95.29">
  <!-- Generator: Adobe Illustrator 29.3.0, SVG Export Plug-In . SVG Version: 2.1.0 Build 146)  -->
  <defs>
    <style>
      .st0 {
        fill: #008b3f;
      }

      .st1 {
        fill: #3d2683;
      }

      .st2 {
        fill: #f7a701;
      }
    </style>
  </defs>
  <g id="Text">
    <polygon class="st1" points="114.02 50.58 114.02 35.98 116.73 35.98 116.73 42.53 123.25 35.98 126.65 35.98 120.38 42.09 126.88 50.58 123.59 50.58 118.54 43.89 116.73 45.67 116.73 50.58 114.02 50.58"/>
    <path class="st1" d="M129.22,50.58v-10.98h2.56v10.98h-2.56ZM130.47,37.26c-.52,0-.92-.12-1.19-.4-.29-.26-.44-.62-.44-1.08s.15-.82.44-1.08c.29-.28.69-.42,1.19-.42s.94.12,1.21.4c.29.26.44.62.44,1.1,0,.44-.15.8-.44,1.06-.29.28-.69.42-1.21.42Z"/>
    <path class="st1" d="M135.1,50.58v-10.98h2.5l.02,1.56c.38-.52.88-.94,1.52-1.3.64-.32,1.29-.5,1.98-.5,2.52,0,3.79,1.52,3.79,4.51v6.71h-2.56v-6.53c0-1.68-.71-2.5-2.1-2.44-.73,0-1.35.24-1.83.66-.5.46-.75,1.04-.75,1.68v6.63h-2.56Z"/>
    <path class="st1" d="M152.77,48.62c.9,0,1.64-.34,2.18-.98.6-.68.86-1.54.86-2.58s-.26-1.9-.86-2.54c-.54-.64-1.28-.98-2.18-.98s-1.64.34-2.2.98c-.58.64-.84,1.5-.84,2.54s.26,1.9.84,2.58c.56.64,1.3.98,2.2.98ZM152.28,50.78c-.98,0-1.86-.24-2.64-.72-.76-.5-1.4-1.2-1.82-2.06-.44-.84-.68-1.82-.68-2.94s.24-2.08.68-2.94c.42-.86,1.06-1.54,1.82-2.02.78-.5,1.64-.76,2.62-.76.68,0,1.36.16,1.98.42.6.28,1.1.64,1.5,1.06v-5.67h2.56v15.42h-2.48l-.04-1.38c-.36.44-.84.8-1.46,1.1-.64.32-1.32.48-2.04.48Z"/>
    <path class="st1" d="M166.17,41.61c-1.7,0-2.7.78-3.02,2.3h5.55v-.1c-.06-.64-.32-1.16-.8-1.58-.48-.4-1.08-.62-1.74-.62ZM166.43,50.78c-1.16,0-2.18-.24-3.08-.72-.88-.48-1.56-1.14-2.04-1.98-.5-.86-.76-1.82-.76-2.9,0-1.16.26-2.16.74-3.04.48-.88,1.12-1.56,1.98-2.04.84-.5,1.8-.76,2.9-.78.98.02,1.86.26,2.62.74.76.46,1.38,1.08,1.82,1.92.44.8.64,1.72.6,2.78l-.02.9h-8.09c.14.86.52,1.56,1.16,2.06.64.52,1.46.76,2.44.76.52,0,.98-.08,1.42-.24.44-.16.9-.46,1.4-.9l1.28,1.78c-.58.52-1.26.92-2.04,1.2-.76.32-1.56.46-2.32.46Z"/>
    <path class="st1" d="M173.56,50.58v-10.98h2.52l.02,1.9c.34-.6.82-1.12,1.42-1.52.6-.4,1.22-.62,1.9-.62.22,0,.46.02.68.08.22.04.38.08.52.14l-.68,2.82c-.14-.08-.34-.16-.56-.22-.24-.06-.44-.08-.68-.08-.48,0-.9.1-1.28.34-.4.22-.7.54-.92.96-.24.38-.36.84-.36,1.34v5.85h-2.58Z"/>
    <path class="st1" d="M182.39,50.58v-15.42h2.56v5.97c.36-.52.86-.94,1.52-1.28.62-.32,1.26-.5,1.96-.5,2.52,0,3.79,1.52,3.79,4.51v6.71h-2.58v-6.53c0-1.68-.7-2.5-2.1-2.44-.74,0-1.36.24-1.84.66-.5.46-.74,1.04-.74,1.68v6.63h-2.58Z"/>
    <path class="st1" d="M200,48.5c.9,0,1.64-.32,2.2-.98.56-.64.86-1.46.86-2.48s-.3-1.82-.86-2.46-1.3-.96-2.2-.96-1.6.32-2.16.96c-.56.64-.84,1.46-.84,2.46s.28,1.84.84,2.48c.56.66,1.26.98,2.16.98ZM199.3,50.78c-.9,0-1.74-.24-2.46-.74-.76-.5-1.34-1.2-1.78-2.06-.44-.84-.66-1.82-.66-2.94s.22-2.1.66-2.94c.44-.88,1.04-1.54,1.82-2.02.76-.48,1.62-.74,2.58-.74.8,0,1.48.18,2.08.48.62.34,1.08.78,1.42,1.3v-1.54h2.6v10.98h-2.62v-1.54c-.36.5-.86.9-1.52,1.24-.64.34-1.36.5-2.12.5Z"/>
    <path class="st1" d="M212.2,50.78c-1.2,0-2.14-.4-2.84-1.18-.68-.78-1.02-1.86-1.02-3.23v-6.77h2.56v6.23c0,.86.22,1.54.6,2.02.4.5.98.76,1.72.76.7,0,1.3-.24,1.78-.7.48-.44.7-1.02.7-1.72v-6.59h2.58v10.98h-2.52l-.04-1.64c-.36.56-.86.98-1.48,1.32-.64.36-1.32.52-2.04.52Z"/>
    <path class="st1" d="M225,50.78c-.98,0-1.84-.16-2.62-.5-.76-.3-1.42-.78-1.9-1.4l1.68-1.44c.42.48.88.82,1.4,1.02.52.22,1.06.32,1.62.32.48,0,.86-.1,1.16-.34.26-.2.4-.5.4-.86,0-.34-.12-.62-.36-.8-.28-.2-.88-.42-1.82-.64-1.46-.4-2.48-.9-3.04-1.56-.48-.52-.72-1.18-.72-1.98,0-.64.18-1.2.56-1.7.36-.48.86-.86,1.48-1.16.64-.26,1.32-.4,2.06-.4.82,0,1.62.16,2.38.46.74.32,1.36.74,1.84,1.28l-1.42,1.56c-.38-.38-.82-.68-1.32-.94-.5-.24-.96-.36-1.38-.36-1.12,0-1.68.38-1.68,1.16.02.36.18.62.46.84.3.2.92.44,1.88.68,1.32.36,2.26.82,2.8,1.38.28.26.46.54.56.88.1.34.18.7.18,1.1,0,.68-.2,1.26-.56,1.76-.36.52-.86.92-1.52,1.2-.62.3-1.34.44-2.12.44Z"/>
    <path class="st1" d="M118.65,70.43c-1.27,0-2.4-.24-3.33-.72-.94-.48-1.75-1.2-2.44-2.14l1.77-2c.69.94,1.35,1.6,2,1.96.65.36,1.4.54,2.21.54.71,0,1.31-.16,1.79-.48.5-.3.75-.7.75-1.22,0-.62-.27-1.1-.85-1.44-.54-.36-1.33-.66-2.36-.84-3.04-.6-4.56-2.1-4.56-4.49,0-.82.23-1.56.71-2.2.46-.62,1.08-1.12,1.88-1.48.77-.36,1.65-.54,2.61-.54,1.23,0,2.27.2,3.1.64.87.44,1.54,1.08,2.02,1.9l-1.79,1.78c-.85-1.3-1.98-1.94-3.33-1.94-.73,0-1.33.14-1.79.46-.46.3-.69.74-.69,1.26,0,.58.25,1,.71,1.32.5.32,1.19.58,2.12.78,1.52.3,2.73.8,3.62,1.52.88.7,1.31,1.62,1.31,2.74,0,.92-.23,1.76-.67,2.46-.46.68-1.1,1.22-1.92,1.58-.81.38-1.77.56-2.88.56Z"/>
    <path class="st1" d="M131.48,68.15c.9,0,1.63-.32,2.19-.98.56-.64.85-1.46.85-2.48s-.29-1.82-.85-2.46c-.56-.64-1.29-.96-2.19-.96s-1.6.32-2.17.96c-.56.64-.83,1.46-.83,2.46s.27,1.84.83,2.48c.56.66,1.27.98,2.17.98ZM130.78,70.43c-.9,0-1.73-.24-2.46-.74-.75-.5-1.33-1.2-1.77-2.06-.44-.84-.67-1.84-.67-2.94s.23-2.1.67-2.94c.44-.88,1.04-1.54,1.81-2.02.77-.48,1.63-.74,2.58-.74.79,0,1.48.18,2.08.48.61.34,1.06.78,1.42,1.3v-1.54h2.58v10.98h-2.6v-1.56c-.38.52-.88.92-1.52,1.26-.65.34-1.35.5-2.12.5Z"/>
    <path class="st1" d="M139.96,70.23v-10.98h2.52l.02,1.58c.35-.52.85-.94,1.46-1.28.61-.32,1.25-.5,1.9-.5.8,0,1.48.18,2.04.54.56.34.98.88,1.26,1.62.22-.4.56-.78.96-1.1.38-.32.84-.6,1.32-.78.48-.18.98-.28,1.46-.28,2.52,0,3.75,1.54,3.75,4.55v6.63h-2.58v-6.47c0-1.62-.68-2.44-2-2.44-.74,0-1.32.24-1.8.68-.48.42-.72,1-.72,1.66v6.57h-2.58v-6.49c0-.78-.16-1.4-.5-1.82-.36-.38-.83-.6-1.46-.6-.71,0-1.29.24-1.77.68-.48.42-.71,1-.71,1.64v6.59h-2.58Z"/>
    <path class="st1" d="M164.4,61.26c-1.68,0-2.68.78-3.02,2.3h5.57v-.1c-.08-.64-.34-1.16-.82-1.58-.48-.42-1.06-.62-1.74-.62ZM164.66,70.43c-1.16,0-2.18-.24-3.08-.72-.86-.48-1.56-1.14-2.04-2-.5-.84-.74-1.8-.74-2.9s.24-2.14.72-3.02c.48-.88,1.12-1.56,1.98-2.04.84-.5,1.8-.76,2.9-.78.98.02,1.86.26,2.64.74.74.46,1.38,1.08,1.82,1.92.42.78.62,1.72.6,2.78l-.02.88h-8.11c.14.88.52,1.58,1.16,2.08.66.52,1.46.76,2.44.76.52,0,.98-.08,1.42-.24.44-.18.9-.46,1.4-.9l1.28,1.78c-.56.52-1.26.92-2.02,1.2-.78.32-1.58.46-2.34.46Z"/>
    <path class="st1" d="M171.73,70.23v-10.98h2.5l.02,1.56c.38-.52.88-.94,1.52-1.3.64-.32,1.3-.5,1.98-.5,2.52,0,3.79,1.5,3.79,4.51v6.71h-2.56v-6.53c0-1.68-.72-2.5-2.12-2.44-.72,0-1.36.22-1.84.66-.5.46-.74,1.04-.74,1.68v6.63h-2.56Z"/>
    <polygon class="st1" points="184.41 70.23 184.41 54.81 186.96 54.81 186.96 63.8 191.51 59.25 194.93 59.25 189.8 64.04 194.99 70.23 191.81 70.23 188.08 65.68 186.96 66.7 186.96 70.23 184.41 70.23"/>
    <path class="st1" d="M201.24,68.15c.6,0,1.12-.14,1.6-.46.46-.28.82-.7,1.1-1.22.26-.5.38-1.1.38-1.76s-.12-1.24-.38-1.76c-.28-.54-.64-.92-1.1-1.22-.48-.32-1-.46-1.6-.46s-1.14.14-1.62.46c-.48.3-.84.68-1.12,1.24-.26.5-.38,1.1-.38,1.74s.12,1.26.38,1.76c.28.52.64.94,1.12,1.22.48.32,1.02.46,1.62.46ZM201.24,70.43c-1.1,0-2.08-.24-2.94-.72-.86-.5-1.54-1.2-2.04-2.06-.5-.84-.76-1.82-.76-2.94s.26-2.08.76-2.94c.5-.86,1.18-1.54,2.04-2.02.86-.5,1.84-.76,2.94-.76s2.06.26,2.92.76c.86.48,1.54,1.16,2.04,2.02.48.86.74,1.84.74,2.94s-.26,2.1-.74,2.94c-.5.86-1.18,1.56-2.04,2.06-.86.48-1.84.72-2.92.72Z"/>
    <path class="st1" d="M209.23,70.23v-10.98h2.52l.02,1.9c.34-.6.82-1.14,1.42-1.52.6-.4,1.22-.62,1.9-.62.22,0,.46.02.68.06.22.06.38.1.52.16l-.68,2.82c-.14-.1-.34-.16-.56-.22-.24-.06-.44-.08-.68-.08-.48,0-.88.1-1.28.34-.4.22-.7.54-.92.96-.24.36-.36.82-.36,1.32v5.87h-2.58Z"/>
    <path class="st1" d="M217.99,70.23v-10.98h2.5l.02,1.56c.38-.52.88-.94,1.52-1.3.66-.32,1.3-.5,1.98-.5,2.54,0,3.79,1.5,3.79,4.51v6.71h-2.56v-6.53c0-1.68-.7-2.5-2.1-2.44-.74,0-1.36.22-1.84.66-.5.46-.76,1.04-.76,1.68v6.63h-2.56Z"/>
  </g>
  <g id="Logo">
    <path class="st2" d="M81.24,29.81c2.7,2.6,9.62,8.91,13.63,12.08.83,1.06,1.98,1.96,1.77,3.53-.33.54-.84.82-1.3.72l-1.14-.88c-.21-.22-.57-.56-1.09-.88.21,6.91-.73,18.51-.42,25.7.11,2.56,0,3.12.42,3.79.26.52,4.37-.28,5.93-.48,4.37-.52,4.79-.68,6.45-.2.58.26.37,1.88,0,2.3-2.13.78-10.14,2.18-12.9,2.28-.51.02-3.18-.1-3.33-1.6-1.11-10.72.26-25.24.26-27.94,0-1.56.3-3.95.26-5.63,0,0-6.31-6.29-10.32-10.2.77-1.08,1.32-1.7,1.79-2.6"/>
    <path class="st2" d="M61.79,14.64c1.11.62,15.25,11.6,18.32,13.84-.44.2-3.62,1.5-3.7,1.6-.27.02-11.5-8.05-12.8-9.15-.34-.28-2.94-2.34-3.69-2.34-.94,0-4.72,3.37-5.2,3.63,0,0-31.78,24.34-33.61,26.02-.7.64-2.55,1.72-2.91,1.24-.5-.64.04-2.28.42-2.7,3.85-4.27,21.2-17.35,21.64-17.69,3.12-2.44,13.93-11.7,14.57-12.22.57-.48,2.06-1.54,2.6-1.94.88-.62,2.81-1.2,4.37-.3"/>
    <path class="st1" d="M45.18,50.6c-.24-1.84.58-3.47,1.84-3.67,1.26-.18,2.47,1.16,2.71,3,.24,1.84-.58,3.47-1.84,3.67-1.26.18-2.47-1.16-2.71-3"/>
    <path class="st1" d="M62.65,52.48c-.24-1.84.58-3.49,1.84-3.67,1.26-.2,2.47,1.14,2.71,2.98.24,1.86-.58,3.49-1.84,3.67-1.26.2-2.47-1.14-2.71-2.98"/>
    <path class="st0" d="M80.11,28.26c-.54.32-2.51,1.32-3.45,1.68-4.44,1.68-10.84-.76-11.96-1.26-3.58.48-2.73.36-1.67-.72-7.51-1.76-15.32.82-19.14,3.53-2.21,1.56-4.84,4.11-5.31,4.99.52.2.81.44,1.14.62.73-.5,1.96-1.56,2.81-2.08,1.33-.8,2.42-1.54,4.68-1.26.86.12,2.91.94,4.89,2.3.54.38,4.31,2.36,5.1,2.72-.06-.44-.34-1-.38-1.5.92,1.26,2.05,1.92,2.05,1.9,5.43,1.36,8.59,1.04,12.5-.24-.49-.36-.87-.8-1.38-1.28.91.18,1.68.32,2.27.66,5.78-2.5,9.87-9.09,11.48-12.62-1.53,1.32-1.96,1.58-3.62,2.56M72.26,36.46c-1.13.3-3.36.12-5.58-.3.79.96.69.88,1.43,1.82-2.01.74-7.22.1-10.28-1.36-.89-.44-2.24-1.68-2.81-2.54.07.9.13,1.08.21,1.78-2.36-.86-5.05-3.53-9.23-3.83,3.12-2.02,7.97-3.89,14.38-3.27.27.12-.72.84-1.08,2.22,1.16-.74,2.59-1.02,4.06-1.02,5.11,1.48,10.97,2.96,16.67-.26-2.43,3.1-5.2,5.77-7.76,6.77"/>
    <path class="st2" d="M29.32,46.79c.44.02,2.06,1.82,2.08,2.08.6,8.69.85,28.93.31,29.95-.73,1.4-4.16,1.16-4.58,1.06,0,0-11.67-.8-12.38-1.06-.45-.14-.72-1.36-.52-1.46.87-.42,5.32-.1,7.87-.18,2.52-.1,5.19.28,5.76-.86.37-.72-.07-18.51-.51-26.14-.03-.56-.53-2.62-.21-3.1.39-.58,1.39-.36,2.18-.3"/>
    <path class="st1" d="M38.79,36.48c.08.5.63.34.94.52-.27.88-.77,1.66-1.14,2.5-3.12,6.55-2.77,11.24-2.5,14.88,1.25,16.85,17.78,25.54,31.94,23.92,10.92-1.24,14.88-13.84,14.98-17.79.17-6.57-1.77-12.58-2.91-15.18-.29-.66-1.56-2.74-1.46-3.23,0,0,1.6-1.8,2.6-1.04,1.21.04,1.75,1.3,2.29,2.08.46.28,3.95,9.17,3.54,17.27-.6,11.68-8.95,20.61-27.15,20.71-11.55.06-19.77-8.95-21.12-10.72-1.42-1.86-5.25-6.95-5.72-15.7-.62-11.5,4.81-17.55,5.51-18.21h.21Z"/>
    <path class="st1" d="M52.94,58.15c1.6,2.74,4.99,2.74,6.66,1.54.5-.36.62-.28.83-.1.24.18.28.86-.09,1.06-4.18,2.1-8.02-.04-8.96-2-.21-.44.23-1.04.83-1.04,0,0,.44.02.73.54"/>
    <path class="st1" d="M49.4,65.62c4.55,4.37,14.37,4.11,19.08,1.34.16-.1,2.49-.2,3.08.32.24.2-.03,1.96-1.88,1.62-.6-.1-1.51-.12-1.9.14-5.88,4.05-12.94,1.72-14.22,1.16-2.36-1.04-4.89-3.85-5.2-4.05-.55-.36-2-.96-1.35-1.56.56-.54,1.78.44,2.39,1.04"/>
  </g>
</svg>