<svg xmlns="http://www.w3.org/2000/svg" viewBox="0 0 458.66 143.37" fill="%fill%" role="img">
<title>%site_name%</title>
<style type="text/css">.st0{fill:none;stroke:%fill%;stroke-miterlimit:10;}</style>
<path d="m.48,134.45c2.53-2.54,12.85-.88,19.27-1.06,9.71-.27,9.77-.07,9.71-9.85-.1-15.8.62-31.63-1.61-47.37-.38-2.67-1.9-6.33,2.92-7.02,3.58-.51,7.48,2.8,7.72,6.74.49,7.97,1.01,15.95,1.16,23.93.21,11.32,0,22.64.14,33.96.05,4.47-1.65,7.12-6.32,6.94-11.05-.44-29.57,1.78-32.98-3.27-.56-.83-.71-2.29,0-3Z" style="stroke-width:0px;"/>
<path d="m52.5,45.69c-12.08,9.3-24.17,18.6-36.25,27.91-.26.2-.47.49-.75.65-2.03,1.11-4.17,4.04-6.4,1.56-2.06-2.29-.42-5.11,1.5-7.1,6.45-6.73,13.84-12.42,21.19-18.08,18.92-14.59,37.51-29.56,55.79-44.93,9.1-7.65,11.63-7.45,21.22-.2,9.52,7.19,19.05,14.36,28.44,21.71,2.81,2.2,5.18,3.27,8.12.36.62-.62,1.76-2.02,2.94-.77.8.85.17,2.01-.5,2.68-3.7,3.71-1.64,5.99,1.56,8.68,7.86,6.62,15.46,13.56,23.16,20.38,1.61,1.43,3.25,2.82,4.05,4.92.58,1.54,1.42,3.01.05,4.63-1.38,1.64-2.79,1.43-4.4.44-2.25-1.39-2.15.48-2.12,1.72.39,17.16-2.37,34.24-1.17,51.43.26,3.75,1.31,5.5,5.39,4.87,5.41-.84,10.86-1.43,16.32-1.91,2.63-.23,5.88-.42,6.29,3.21.37,3.27-2.1,4.07-5.02,4.87-7.41,2.04-15.03,2.58-22.54,3.81-6.5,1.06-9.83-1.96-9.84-8.49-.03-19.98-.72-39.99,1.49-59.91.5-4.51-.55-7.89-4.1-10.96-5.01-4.34-9.68-9.1-14.23-13.94-2.03-2.16-3.14-1.98-5.09.06-9.93,10.36-21.95,15.15-36.28,12.31-7.6-1.51-14.72-4.49-21.4-8.64-9.46-5.88-15.13-5.29-23.12,2.46-4.16,4.03-5.76,9.75-7.14,15.13-8.54,33.48,10.23,63.09,44.22,70.52,8.43,1.84,16.91,2.48,25.21.56,17.65-4.08,26.04-21.86,27.47-33.45,1.6-13.01-1.11-25.48-6.79-37.28-1.17-2.43-2.87-4.8.46-6.88,3.41-2.14,5.76-.18,7.63,2.31,3.78,5.05,5.13,11.14,6.54,17.1,3.15,13.36,4.11,26.72-2.23,39.52-6.81,13.73-18.75,20.48-33.11,24.03-22.86,5.66-43.32,1.56-60.52-14.98-15.83-15.21-20.29-34.05-16.56-55.28,1.61-9.15,5.56-17.19,11.67-24.28-.38-.25-.75-.5-1.13-.75Zm18.82-7.71c1.3.56,2.01.89,2.74,1.19,5.84,2.36,11.82,4.65,17.41,7.33,6.54,3.13,12.98,4.58,19.96,4.85,1.13.04,2.62.07,2.42-1.66-.32-2.84,1.53-2.58,3.15-2.22,9.99,2.22,15.14-4.57,20.68-10.91-9.12,3.29-18.07,1.91-27.01-.22-2.25-.54-4.49-1.41-6.75-1.48-2.7-.09-6.34,3.21-7.02-2.52-.03-.22-1.21-.46-1.84-.42-8.06.55-16.03,1.49-23.74,6.06Zm59.41-3.9c-10.62-7.67-20.26-14.63-29.91-21.6-1.96-1.41-3.83-.87-5.52.42-8.52,6.51-17,13.08-26.54,20.44,1.95-.44,2.59-.49,3.17-.72,13.46-5.31,26.82-5.95,40.49-.3,5.28,2.18,11.13,3.13,18.31,1.77Z" style="stroke-width:0px;"/>
<path d="m97.83,122.57c-11.19.94-18.67-5.84-26.24-12.45-.64-.56-1.29-1.37-.82-2.15.59-.97,1.76-.82,2.69-.46.76.29,1.46.8,2.09,1.32,11.32,9.47,23.98,9.27,37.15,5.1,2.68-.85,5.21-2.17,8.17-1.67,1.26.21,2.35.61,2.52,1.96.2,1.56-1,2.96-2.17,2.86-6.03-.49-10.49,3.82-15.96,4.85-2.44.46-4.96.44-7.45.64Z" style="stroke-width:0px;"/>
<path d="m77.25,78.53c-.32,2.74-1.13,6.33-5.09,6.1-4.13-.24-5.51-3.88-5.57-7.62-.05-3.31.78-6.5,4.78-7.01,3-.38,5.91,3.76,5.88,8.53Z" style="stroke-width:0px;"/>
<path d="m114.46,82.5c-.26,2.59-.88,6-4.97,5.99-4.59,0-5.42-3.86-5.56-7.4-.13-3.18.44-6.55,4.57-7.1,3.06-.4,5.92,3.5,5.96,8.5Z" style="stroke-width:0px;"/>
<path d="m91.92,101.55c-4.41.14-8.06-1.39-10.96-4.77-1-1.17-1.48-2.38-.35-3.49,1.27-1.25,2.41-.39,3.31.75,3.44,4.36,7.73,5.25,12.84,3.37.89-.33,2.23-1.5,2.94.27.71,1.77-.91,2.29-1.97,2.92-1.78,1.05-3.83.89-5.81.97Z" style="stroke-width:0px;"/>
<path d="m243.17,58l-8.95-12.58-3.6,3.69v7.99c0,1.79-.94,2.85-2.57,2.85s-2.64-1.06-2.64-2.85v-26.09c0-1.79.96-2.85,2.62-2.85s2.59,1.06,2.59,2.85v11.75h.28l12.23-13.1c.9-1.01,1.54-1.38,2.34-1.38,1.31,0,2.29,1.01,2.29,2.29,0,.69-.25,1.17-1.19,2.18l-8.47,9.23,9.16,12.62c1.06,1.42,1.29,1.95,1.29,2.73,0,1.47-1.05,2.5-2.59,2.5-.99,0-1.84-.55-2.78-1.84Z" style="fill:#1d1d1b; stroke-width:0px;"/>
<path d="m256,26.52c1.77,0,3.05,1.19,3.05,2.85s-1.29,2.89-3.05,2.89-3.01-1.22-3.01-2.89,1.31-2.85,3.01-2.85Zm.02,33.44c-1.54,0-2.55-.96-2.55-2.82v-19.05c0-1.88,1.03-2.82,2.55-2.82s2.55.96,2.55,2.82v19.05c0,1.88-1.01,2.82-2.55,2.82Z" style="fill:#1d1d1b; stroke-width:0px;"/>
<path d="m283.42,59.95c-1.63,0-2.57-1.03-2.57-2.82v-12.37c0-3.42-1.7-5.3-4.77-5.3-3.51,0-5.74,2.55-5.74,6.75v10.92c0,1.79-.94,2.82-2.55,2.82s-2.55-1.03-2.55-2.82v-19.12c0-1.72.96-2.75,2.52-2.75s2.43.94,2.48,2.62v1.95h.25c.99-2.96,3.67-4.73,7.3-4.73,5.19,0,8.17,3.01,8.17,8.24v13.82c0,1.79-.94,2.8-2.55,2.8Z" style="fill:#1d1d1b; stroke-width:0px;"/>
<path d="m300.4,60.07c-5.62,0-9.18-4.04-9.18-10.37v-4.22c0-6.33,3.63-10.37,9.27-10.37,3.37,0,6.01,1.49,6.95,3.97h.25v-9.66c0-1.79.92-2.82,2.55-2.82s2.55,1.03,2.55,2.82v27.72c0,1.81-.87,2.82-2.48,2.82-1.49,0-2.39-.94-2.48-2.59v-1.49h-.25c-.73,2.48-3.67,4.2-7.18,4.2Zm1.61-4.18c3.49,0,5.69-2.55,5.69-6.61v-3.74c0-3.67-2.39-6.24-5.81-6.24s-5.46,2.59-5.46,6.93v2.71c0,4.38,2.07,6.95,5.58,6.95Z" style="fill:#1d1d1b; stroke-width:0px;"/>
<path d="m318.44,45.91c0-6.47,4.29-10.9,10.56-10.9s10.24,4.31,10.24,10.28c0,2.69-.64,3.51-2.66,3.51h-12.94v1.15c0,3.74,2.34,6.13,6.17,6.13,1.95,0,3.4-.55,4.57-1.61,1.19-1.01,1.56-1.26,2.36-1.26,1.1,0,1.86.8,1.86,1.97,0,.9-.55,1.86-1.49,2.62-1.56,1.49-4.41,2.39-7.6,2.39-6.84,0-11.06-4.08-11.06-10.83v-3.44Zm15.86-.67v-.07c0-3.69-2.04-6.08-5.23-6.08s-5.44,2.46-5.44,6.08v.07h10.67Z" style="fill:#1d1d1b; stroke-width:0px;"/>
<path d="m347.17,59.95c-1.63,0-2.52-1.03-2.52-2.82v-19.05c0-1.79.94-2.82,2.55-2.82,1.51,0,2.39.94,2.46,2.57v.73h.18c1.1-2.29,2.94-3.47,5.19-3.47.8,0,1.47.18,1.93.55.55.37.85.99.85,1.74,0,.8-.28,1.38-.83,1.74-.46.32-1.12.46-2,.48-3.46.05-5.23,1.93-5.23,5.74v11.77c0,1.79-.94,2.82-2.57,2.82Z" style="fill:#1d1d1b; stroke-width:0px;"/>
<path d="m380.47,59.95c-1.63,0-2.55-1.03-2.55-2.82v-12.32c0-3.42-1.79-5.35-4.91-5.35-3.47,0-5.71,2.59-5.71,6.75v10.92c0,1.79-.94,2.82-2.55,2.82s-2.55-1.03-2.55-2.82v-27.72c0-1.79.94-2.82,2.55-2.82s2.55,1.03,2.55,2.82v10.42h.25c.83-2.8,3.86-4.73,7.37-4.73,5.07,0,8.1,3.1,8.1,8.26v13.77c0,1.79-.94,2.82-2.55,2.82Z" style="fill:#1d1d1b; stroke-width:0px;"/>
<path d="m395.78,60.07c-4.73,0-7.92-2.98-7.92-7.39s3.26-7.21,8.67-7.23h6.06v-2.16c0-2.73-1.67-4.15-4.77-4.15-1.93,0-3.26.69-4.66,2.11-.62.6-1.22.83-2.09.83-1.12,0-1.86-.76-1.86-1.86,0-1.4.96-2.78,3.01-3.88,1.47-.8,3.4-1.24,5.92-1.24,6.13,0,9.55,2.94,9.55,8.22v13.88c0,1.74-.89,2.75-2.48,2.75-1.4,0-2.29-.85-2.41-2.29v-1.08h-.25c-1.33,2.25-3.76,3.49-6.77,3.49Zm1.58-3.88c2.96,0,5.23-2.02,5.23-4.64v-2.62h-5.35c-2.71,0-4.27,1.26-4.27,3.49s1.77,3.76,4.38,3.76Z" style="fill:#1d1d1b; stroke-width:0px;"/>
<path d="m421.57,60.07c-4.61,0-8.01-2.34-8.01-7.96v-14.11c0-1.88,1.01-2.75,2.55-2.75s2.55.87,2.55,2.75v12.81c0,3.67,2.13,4.96,4.7,4.96,3.47,0,5.74-2.32,5.74-5.28v-12.48c0-1.88,1.03-2.75,2.57-2.75s2.55.87,2.55,2.75v19.25c0,1.81-1.06,2.71-2.52,2.71s-2.46-.83-2.5-2.57v-1.7h-.28c-.76,2.13-2.96,4.38-7.34,4.38Z" style="fill:#1d1d1b; stroke-width:0px;"/>
<path d="m441.45,52.79c.71,0,1.26.32,2.2,1.22,1.63,1.54,3.35,2.27,5.55,2.27,2.78,0,4.5-1.19,4.5-3.14,0-1.54-1.15-2.69-3.33-3.17l-4.18-.96c-4.38-.99-6.45-3.14-6.45-6.63,0-4.45,3.67-7.37,9.39-7.37,2.36,0,4.57.55,6.29,1.58,1.63.94,2.59,2.27,2.59,3.58,0,1.17-.8,1.9-2.02,1.9-.71,0-1.22-.23-2.27-1.12-1.67-1.51-3.01-2.07-4.84-2.07-2.62,0-4.2,1.22-4.2,3.14,0,1.56,1.03,2.5,3.28,3.03l4.41,1.01c4.29.99,6.29,3.1,6.29,6.63,0,4.61-3.7,7.48-9.73,7.48-2.55,0-4.93-.55-6.72-1.54s-2.8-2.34-2.8-3.81c0-1.24.8-2.04,2.04-2.04Z" style="fill:#1d1d1b; stroke-width:0px;"/>
<path d="m225.93,107.33c.99,0,1.74.46,2.73,1.7,1.7,2.25,4.06,3.37,7.09,3.37,3.97,0,6.31-1.65,6.31-4.52,0-2.34-1.56-3.81-5-4.68l-4.96-1.29c-5.23-1.29-7.85-4.11-7.85-8.47,0-5.6,4.45-9.27,11.18-9.27,3.53,0,6.68,1.01,8.7,2.85,1.47,1.33,2.29,2.87,2.29,4.34,0,1.29-.87,2.16-2.16,2.16-.96,0-1.68-.41-2.25-1.33-1.24-2.29-3.56-3.65-6.49-3.65-3.6,0-5.94,1.77-5.94,4.52,0,2.11,1.49,3.62,4.41,4.36l4.93,1.24c5.69,1.42,8.31,4.13,8.31,8.65,0,5.83-4.57,9.48-11.75,9.48-3.9,0-7.34-1.08-9.36-2.94-1.54-1.4-2.34-2.85-2.34-4.18s.92-2.34,2.16-2.34Z" style="fill:#1d1d1b; stroke-width:0px;"/>
<path d="m258.89,116.47c-4.73,0-7.92-2.98-7.92-7.39s3.26-7.21,8.67-7.23h6.06v-2.16c0-2.73-1.67-4.15-4.77-4.15-1.93,0-3.26.69-4.66,2.11-.62.6-1.22.83-2.09.83-1.12,0-1.86-.76-1.86-1.86,0-1.4.96-2.78,3.01-3.88,1.47-.8,3.4-1.24,5.92-1.24,6.13,0,9.55,2.94,9.55,8.21v13.88c0,1.74-.89,2.75-2.48,2.75-1.4,0-2.29-.85-2.41-2.29v-1.08h-.25c-1.33,2.25-3.76,3.49-6.77,3.49Zm1.58-3.88c2.96,0,5.23-2.02,5.23-4.64v-2.62h-5.35c-2.71,0-4.27,1.26-4.27,3.49s1.77,3.76,4.38,3.76Z" style="fill:#1d1d1b; stroke-width:0px;"/>
<path d="m308.44,116.35c-1.61,0-2.52-1.01-2.52-2.82v-12.94c0-3.05-1.72-4.8-4.61-4.8s-4.84,2.13-4.84,5.23v12.51c0,1.81-.9,2.82-2.48,2.82s-2.5-1.01-2.5-2.82v-12.81c0-3.05-1.81-4.93-4.66-4.93s-4.77,2.07-4.77,5.19v12.55c0,1.81-.94,2.82-2.55,2.82s-2.55-1.01-2.55-2.82v-19.09c0-1.72.96-2.78,2.52-2.78s2.43,1.01,2.48,2.69v1.47h.25c.87-2.69,3.33-4.31,6.61-4.31s5.9,1.72,6.7,4.57h.25c1.1-2.87,3.81-4.57,7.32-4.57,4.98,0,7.89,2.82,7.89,7.62v14.41c0,1.81-.94,2.82-2.55,2.82Z" style="fill:#1d1d1b; stroke-width:0px;"/>
<path d="m316.38,102.31c0-6.47,4.29-10.9,10.56-10.9s10.24,4.31,10.24,10.28c0,2.68-.64,3.51-2.66,3.51h-12.94v1.15c0,3.74,2.34,6.13,6.17,6.13,1.95,0,3.4-.55,4.57-1.61,1.19-1.01,1.56-1.26,2.36-1.26,1.1,0,1.86.8,1.86,1.97,0,.89-.55,1.86-1.49,2.62-1.56,1.49-4.41,2.39-7.6,2.39-6.84,0-11.06-4.08-11.06-10.83v-3.44Zm15.86-.67v-.07c0-3.7-2.04-6.08-5.23-6.08s-5.44,2.46-5.44,6.08v.07h10.67Z" style="fill:#1d1d1b; stroke-width:0px;"/>
<path d="m360.74,116.35c-1.63,0-2.57-1.03-2.57-2.82v-12.37c0-3.42-1.7-5.3-4.77-5.3-3.51,0-5.74,2.55-5.74,6.75v10.92c0,1.79-.94,2.82-2.55,2.82s-2.55-1.03-2.55-2.82v-19.12c0-1.72.96-2.75,2.52-2.75s2.43.94,2.48,2.62v1.95h.25c.99-2.96,3.67-4.73,7.3-4.73,5.19,0,8.17,3.01,8.17,8.24v13.82c0,1.79-.94,2.8-2.55,2.8Z" style="fill:#1d1d1b; stroke-width:0px;"/>
<path d="m372.12,116.35c-1.63,0-2.57-1.03-2.57-2.82v-27.72c0-1.79.92-2.82,2.55-2.82s2.55,1.03,2.55,2.82v16.09h.25l9.02-9.18c.83-.85,1.49-1.19,2.27-1.19,1.24,0,2.13.9,2.13,2.13,0,.69-.28,1.29-.94,1.97l-6.59,6.68,7.41,9.5c.6.73.89,1.45.89,2.09,0,1.26-1.06,2.34-2.34,2.34-.85,0-1.56-.41-2.29-1.35l-7.46-9.59-2.36,2.25v5.99c0,1.79-.92,2.82-2.52,2.82Z" style="fill:#1d1d1b; stroke-width:0px;"/>
<path d="m413.4,102.33v3.26c0,7-4.52,10.99-10.83,10.99s-10.85-3.99-10.85-10.99v-3.24c0-6.91,4.52-10.95,10.85-10.95s10.83,4.04,10.83,10.92Zm-16.48.25v2.82c0,4.38,2.18,7.07,5.64,7.07s5.6-2.68,5.6-7.07v-2.82c0-4.31-2.11-7.04-5.6-7.04s-5.64,2.73-5.64,7.04Z" style="fill:#1d1d1b; stroke-width:0px;"/>
<path d="m421.37,116.35c-1.63,0-2.52-1.03-2.52-2.82v-19.05c0-1.79.94-2.82,2.55-2.82,1.51,0,2.39.94,2.46,2.57v.73h.18c1.1-2.29,2.94-3.46,5.19-3.46.8,0,1.47.18,1.93.55.55.37.85.99.85,1.74,0,.8-.28,1.38-.83,1.74-.46.32-1.12.46-2,.48-3.46.05-5.23,1.93-5.23,5.74v11.77c0,1.79-.94,2.82-2.57,2.82Z" style="fill:#1d1d1b; stroke-width:0px;"/>
<path d="m454.53,116.35c-1.63,0-2.57-1.03-2.57-2.82v-12.37c0-3.42-1.7-5.3-4.77-5.3-3.51,0-5.74,2.55-5.74,6.75v10.92c0,1.79-.94,2.82-2.55,2.82s-2.55-1.03-2.55-2.82v-19.12c0-1.72.96-2.75,2.52-2.75s2.43.94,2.48,2.62v1.95h.25c.99-2.96,3.67-4.73,7.3-4.73,5.19,0,8.17,3.01,8.17,8.24v13.82c0,1.79-.94,2.8-2.55,2.8Z" style="fill:#1d1d1b; stroke-width:0px;"/>
</svg>
