<?xml version="1.0" encoding="utf-8"?>
<!-- Generator: $$$/GeneralStr/196=Adobe Illustrator 27.6.0, SVG Export Plug-In . SVG Version: 6.00 Build 0)  -->
<svg version="1.1" id="Ebene_1" xmlns="http://www.w3.org/2000/svg" xmlns:xlink="http://www.w3.org/1999/xlink" x="0px" y="0px"
	 viewBox="0 0 210 210" style="enable-background:new 0 0 210 210;" xml:space="preserve">
<style type="text/css">
	.st0{fill:#789A01;}
</style>
<path class="st0" d="M7,167.8c2.5-2.5,12.9-0.9,19.3-1.1c9.7-0.3,9.8-0.1,9.7-9.8c-0.1-15.8,0.6-31.6-1.6-47.4
	c-0.4-2.7-1.9-6.3,2.9-7c3.6-0.5,7.5,2.8,7.7,6.7c0.5,8,1,15.9,1.2,23.9c0.2,11.3,0,22.6,0.1,34c0,4.5-1.7,7.1-6.3,6.9
	c-11-0.4-29.6,1.8-33-3.3C6.4,169.9,6.3,168.5,7,167.8L7,167.8z"/>
<path class="st0" d="M59,79c-12.1,9.3-24.2,18.6-36.2,27.9c-0.3,0.2-0.5,0.5-0.8,0.7c-2,1.1-4.2,4-6.4,1.6c-2.1-2.3-0.4-5.1,1.5-7.1
	c6.4-6.7,13.8-12.4,21.2-18.1c18.9-14.7,37.5-29.6,55.8-45c9.1-7.7,11.6-7.5,21.2-0.2c9.5,7.2,19.1,14.4,28.4,21.7
	c2.8,2.2,5.2,3.3,8.1,0.4c0.6-0.6,1.8-2,2.9-0.8c0.8,0.8,0.2,2-0.5,2.7c-3.7,3.7-1.6,6,1.6,8.7c7.9,6.6,15.5,13.6,23.2,20.4
	c1.6,1.4,3.2,2.8,4.1,4.9c0.6,1.5,1.4,3,0.1,4.6c-1.4,1.6-2.8,1.4-4.4,0.4c-2.2-1.4-2.1,0.5-2.1,1.7c0.4,17.2-2.4,34.2-1.2,51.4
	c0.3,3.8,1.3,5.5,5.4,4.9c5.4-0.8,10.9-1.4,16.3-1.9c2.6-0.2,5.9-0.4,6.3,3.2c0.4,3.3-2.1,4.1-5,4.9c-7.4,2-15,2.6-22.5,3.8
	c-6.5,1.1-9.8-2-9.8-8.5c0-20-0.7-40,1.5-59.9c0.5-4.5-0.6-7.9-4.1-11c-5-4.3-9.7-9.1-14.2-13.9c-2-2.2-3.1-2-5.1,0.1
	C134.4,87,122.4,91.8,108,88.9c-7.6-1.5-14.7-4.5-21.4-8.6C77,74.4,71.3,75,63.3,82.7c-4.2,4-5.8,9.8-7.1,15.1
	c-8.5,33.5,10.2,63.1,44.2,70.5c8.4,1.8,16.9,2.5,25.2,0.6c17.7-4.1,26-21.9,27.5-33.4c1.6-13-1.1-25.5-6.8-37.3
	c-1.2-2.4-2.9-4.8,0.5-6.9s5.8-0.2,7.6,2.3c3.8,5.1,5.1,11.1,6.5,17.1c3.1,13.4,4.1,26.7-2.2,39.5c-6.8,13.7-18.8,20.5-33.1,24
	c-22.9,5.7-43.3,1.6-60.5-15c-15.8-15.2-20.3-34.1-16.6-55.3c1.6-9.2,5.6-17.2,11.7-24.3C59.8,79.5,59.4,79.2,59,79L59,79z
	 M77.8,71.3c1.3,0.6,2,0.9,2.7,1.2c5.8,2.4,11.8,4.7,17.4,7.3c6.5,3.1,13,4.6,20,4.8c1.1,0,2.6,0.1,2.4-1.7
	c-0.3-2.8,1.5-2.6,3.2-2.2c10,2.2,15.1-4.6,20.7-10.9c-9.1,3.3-18.1,1.9-27-0.2c-2.2-0.5-4.5-1.4-6.8-1.5c-2.7-0.1-6.3,3.2-7-2.5
	c0-0.2-1.2-0.5-1.8-0.4C93.5,65.8,85.5,66.7,77.8,71.3z M137.2,67.4c-10.6-7.7-20.3-14.6-29.9-21.6c-2-1.4-3.8-0.9-5.5,0.4
	c-8.5,6.5-17,13.1-26.5,20.4c1.9-0.4,2.6-0.5,3.2-0.7C92,60.6,105.3,60,119,65.6C124.2,67.8,130.1,68.8,137.2,67.4L137.2,67.4z"/>
<path class="st0" d="M104.3,155.9c-11.2,0.9-18.7-5.8-26.2-12.4c-0.6-0.6-1.3-1.4-0.8-2.2c0.6-1,1.8-0.8,2.7-0.5
	c0.8,0.3,1.5,0.8,2.1,1.3c11.3,9.5,24,9.3,37.2,5.1c2.7-0.9,5.2-2.2,8.2-1.7c1.3,0.2,2.3,0.6,2.5,2c0.2,1.6-1,3-2.2,2.9
	c-6-0.5-10.5,3.8-16,4.9C109.3,155.7,106.8,155.7,104.3,155.9L104.3,155.9z"/>
<path class="st0" d="M83.8,111.8c-0.3,2.7-1.1,6.3-5.1,6.1c-4.1-0.2-5.5-3.9-5.6-7.6c-0.1-3.3,0.8-6.5,4.8-7
	C80.9,102.9,83.8,107.1,83.8,111.8z"/>
<path class="st0" d="M121,115.8c-0.3,2.6-0.9,6-5,6c-4.6,0-5.4-3.9-5.6-7.4c-0.1-3.2,0.4-6.6,4.6-7.1
	C118.1,106.9,120.9,110.8,121,115.8L121,115.8z"/>
<path class="st0" d="M98.4,134.9c-4.4,0.1-8.1-1.4-11-4.8c-1-1.2-1.5-2.4-0.3-3.5c1.3-1.2,2.4-0.4,3.3,0.8c3.4,4.4,7.7,5.2,12.8,3.4
	c0.9-0.3,2.2-1.5,2.9,0.3c0.7,1.8-0.9,2.3-2,2.9C102.5,135,100.4,134.8,98.4,134.9L98.4,134.9z"/>
</svg>
