<?xml version="1.0" standalone="no"?>
<!DOCTYPE svg PUBLIC "-//W3C//DTD SVG 20010904//EN"
 "http://www.w3.org/TR/2001/REC-SVG-20010904/DTD/svg10.dtd">
<svg version="1.0" xmlns="http://www.w3.org/2000/svg"
 width="700.000000pt" height="700.000000pt" viewBox="0 0 700.000000 700.000000"
 preserveAspectRatio="xMidYMid meet">
<metadata>
Created by potrace 1.14, written by Peter Selinger 2001-2017
</metadata>
<g transform="translate(0.000000,700.000000) scale(0.100000,-0.100000)"
fill="#000000" stroke="none">
<path d="M1500 6407 c-58 -22 -106 -42 -108 -43 -1 0 31 -88 73 -195 41 -106
75 -198 75 -204 0 -8 -32 -29 -82 -52 -3 -2 -59 74 -124 169 -64 95 -118 175
-120 177 -7 8 -213 -143 -207 -153 14 -24 217 -322 229 -336 11 -13 5 -24 -36
-70 l-48 -54 -58 45 c-32 24 -68 52 -79 61 -11 9 -81 64 -155 122 -128 99
-136 104 -150 86 -56 -69 -140 -179 -140 -184 0 -3 71 -60 158 -127 86 -68
187 -146 223 -175 l67 -53 -25 -63 c-52 -127 -68 -228 -67 -403 1 -185 39
-334 125 -494 186 -348 560 -574 944 -573 l83 0 4 -32 c5 -44 -4 -79 -22 -81
-8 -1 -41 -6 -74 -9 -32 -4 -68 -9 -80 -11 -11 -2 -43 -7 -71 -10 -27 -4 -59
-8 -70 -10 -11 -1 -45 -5 -75 -9 -30 -4 -66 -9 -80 -11 -52 -8 -176 -25 -215
-29 -22 -3 -89 -12 -150 -21 -60 -8 -126 -17 -145 -20 -19 -2 -116 -15 -215
-29 -99 -13 -202 -27 -230 -31 -48 -6 -68 -8 -160 -21 -74 -10 -73 -9 -64 -67
5 -28 11 -72 14 -97 12 -102 12 -103 59 -96 22 3 61 9 86 12 25 3 92 12 150
20 58 8 157 22 220 30 63 9 124 17 135 19 11 1 47 6 80 10 33 4 68 9 79 11 10
2 44 6 75 10 31 3 63 8 72 9 9 2 40 6 70 10 30 3 113 15 184 25 72 10 157 22
190 25 33 4 62 9 65 10 3 2 34 6 70 10 36 4 73 9 83 10 15 3 17 -5 18 -63 0
-37 0 -460 0 -940 0 -480 4 -871 7 -869 4 2 25 12 47 22 22 10 82 38 134 62
92 43 103 45 107 20 1 -7 7 -37 14 -67 6 -30 13 -67 15 -82 3 -15 14 -73 25
-128 11 -55 22 -113 25 -128 2 -15 23 -119 45 -232 60 -301 59 -277 13 -284
-21 -3 -60 -8 -88 -11 -27 -2 -70 -7 -95 -10 -25 -3 -61 -7 -80 -9 -72 -7
-175 -19 -190 -21 -8 -2 -44 -6 -80 -10 -36 -3 -76 -8 -90 -10 -69 -10 -156
-18 -163 -17 -8 2 -3 -82 12 -203 6 -50 7 -50 41 -49 37 1 116 9 240 24 41 5
98 12 125 15 46 5 66 7 173 19 20 3 65 8 99 11 34 3 70 7 80 9 10 2 52 7 93
11 41 4 82 9 91 10 8 2 49 6 90 10 41 4 77 10 81 13 6 6 -10 99 -68 397 -9 44
-17 87 -19 95 -6 30 -47 245 -52 270 -2 14 -13 69 -24 123 -10 53 -21 111 -24
127 -5 27 -42 212 -50 251 -3 13 38 36 173 99 97 46 182 87 188 92 8 6 14 -2
18 -24 3 -18 8 -44 11 -58 3 -14 9 -50 15 -80 5 -30 12 -68 15 -85 3 -16 8
-45 11 -64 3 -18 7 -43 10 -55 6 -33 63 -347 69 -386 3 -19 10 -53 15 -75 5
-22 11 -56 14 -75 14 -92 76 -423 79 -427 2 -2 159 32 348 75 340 77 344 78
343 102 -2 44 -37 200 -48 214 -9 11 -48 5 -221 -35 -115 -26 -213 -45 -216
-41 -3 4 -12 41 -19 82 -7 41 -14 84 -16 95 -2 11 -11 58 -19 105 -8 47 -17
96 -20 110 -3 14 -7 39 -10 55 -12 72 -47 264 -55 305 -5 25 -11 61 -14 80 -4
19 -8 46 -11 60 -3 14 -12 63 -20 110 -8 47 -17 95 -19 106 -4 19 14 30 147
94 84 40 169 80 190 88 20 9 37 19 37 22 -1 5 -31 55 -156 253 -39 61 -143
227 -231 367 -87 140 -204 325 -258 412 -54 86 -98 160 -99 164 0 5 13 9 29
10 17 1 102 4 190 8 89 4 199 9 245 11 47 2 150 7 230 10 80 3 181 7 225 10
44 2 150 6 235 10 85 4 159 8 164 8 11 2 12 -12 21 -238 4 -104 9 -226 10
-270 2 -44 6 -163 10 -265 4 -102 8 -216 10 -255 2 -38 6 -158 10 -265 3 -107
8 -231 10 -275 2 -44 4 -104 4 -132 1 -30 6 -53 11 -53 6 0 77 32 157 70 145
70 187 84 188 65 1 -9 17 -100 20 -115 1 -3 4 -18 8 -35 5 -23 89 -452 151
-775 13 -67 18 -90 31 -155 8 -38 16 -81 18 -95 3 -14 10 -53 17 -88 7 -34 11
-64 9 -67 -6 -5 -249 -27 -326 -29 -21 0 -22 -3 -16 -65 7 -88 10 -130 12
-165 l1 -28 103 7 c115 7 198 13 272 20 28 2 95 7 150 10 55 4 103 10 108 14
4 4 -2 57 -14 117 -11 60 -23 120 -25 134 -7 36 -80 408 -114 580 -16 80 -52
264 -80 410 -28 146 -55 283 -60 305 -24 103 -30 149 -21 158 10 10 243 119
246 115 1 -2 14 -66 29 -143 15 -77 29 -149 32 -161 47 -234 294 -1471 294
-1476 0 -5 6 -8 13 -8 17 -1 990 282 1000 290 6 6 -29 149 -58 236 -3 11 -107
-17 -594 -161 -85 -25 -156 -45 -157 -45 -2 0 -12 49 -21 95 -2 11 -10 54 -19
95 -9 41 -18 86 -20 100 -3 14 -7 32 -9 40 -3 8 -7 33 -11 55 -3 22 -8 43 -9
46 -2 3 -7 28 -11 55 -3 27 -8 51 -9 54 -2 3 -6 25 -10 50 -4 25 -8 47 -10 51
-2 3 -7 21 -10 40 -3 19 -35 180 -71 359 -36 179 -68 336 -70 350 -3 13 -12
55 -20 93 -24 117 -60 86 294 254 40 19 72 38 70 41 -2 4 -23 38 -48 77 -25
38 -79 122 -120 187 -473 744 -570 898 -570 906 0 5 6 9 13 9 11 0 50 5 142
18 17 3 134 18 260 35 127 17 275 37 330 45 55 8 118 17 140 19 22 3 56 8 75
11 19 2 55 7 80 10 25 4 56 8 70 10 14 3 48 7 75 9 46 5 164 21 225 31 14 3
49 7 79 11 30 3 62 8 70 9 9 2 22 4 30 4 10 1 12 13 7 59 -4 31 -10 79 -13
107 -7 71 -19 97 -41 91 -15 -4 -96 -16 -214 -31 -18 -2 -49 -6 -68 -9 -19 -3
-55 -8 -80 -11 -25 -4 -56 -8 -70 -10 -14 -2 -47 -6 -75 -9 -27 -4 -61 -8 -75
-11 -39 -7 -197 -28 -370 -50 -19 -2 -51 -6 -70 -9 -67 -10 -112 -16 -158 -21
-26 -3 -54 -8 -62 -10 -8 -2 -40 -7 -70 -10 -30 -3 -100 -13 -155 -20 -97 -14
-181 -25 -221 -28 -35 -3 -19 21 46 68 259 189 413 485 414 800 0 65 -11 184
-20 222 -6 20 -2 23 27 24 19 1 48 3 64 4 149 11 206 16 245 20 25 3 79 7 120
10 107 8 171 30 213 74 59 62 84 163 60 241 -21 65 -170 495 -185 530 -52 122
-231 155 -334 62 -23 -20 -139 -131 -259 -247 -119 -115 -220 -211 -224 -213
-4 -1 -18 7 -32 19 -13 12 -40 33 -59 48 -19 14 -37 28 -40 31 -24 24 -188
104 -262 129 -111 35 -180 45 -318 44 -112 -1 -152 -5 -234 -27 -179 -46 -350
-146 -472 -274 l-52 -54 -178 238 c-152 202 -186 242 -224 262 -49 24 -94 28
-151 11 -65 -20 -106 -63 -160 -171 l-50 -99 -37 35 c-32 30 -67 58 -165 128
-17 12 -14 23 51 178 60 144 67 166 53 175 -36 22 -216 93 -222 87 -4 -4 -34
-74 -68 -157 -34 -82 -67 -154 -72 -160 -11 -10 -7 68 17 315 5 53 3 60 -13
61 -10 1 -29 2 -43 4 -14 1 -64 5 -112 9 l-88 8 -1 -34 c-1 -18 -2 -44 -4 -58
-6 -58 -18 -226 -17 -243 1 -23 -4 -24 -118 -32 -52 -3 -108 -7 -124 -8 -27
-2 -30 2 -57 78 -17 44 -36 94 -43 110 -7 17 -28 72 -47 122 -23 62 -39 93
-49 92 -8 0 -62 -19 -120 -42z m591 -611 c201 -15 412 -126 549 -288 176 -209
238 -493 166 -753 -73 -263 -266 -470 -523 -559 -120 -41 -198 -53 -314 -49
-352 14 -662 262 -761 608 -30 105 -32 313 -4 420 89 340 384 593 725 622 36
3 68 7 69 9 2 1 9 1 15 -1 7 -2 42 -6 78 -9z m3542 -28 c3 -13 30 -97 62 -188
68 -198 65 -184 40 -186 -11 -1 -58 -4 -105 -8 -47 -4 -105 -9 -130 -11 -25
-2 -79 -7 -120 -10 -41 -3 -98 -8 -127 -11 -46 -4 -52 -2 -58 16 -7 21 1 29
358 372 33 32 63 56 67 53 4 -3 10 -15 13 -27z m-2458 -210 c61 -83 115 -156
120 -162 18 -19 75 -100 75 -105 0 -5 -202 -6 -306 -2 -15 1 -23 9 -27 30 -3
16 -22 63 -42 106 -19 42 -35 81 -35 86 0 13 93 199 100 199 3 -1 55 -69 115
-152z m1310 22 c137 -37 247 -101 345 -200 86 -87 144 -180 161 -256 7 -29 16
-51 20 -48 4 2 11 -12 15 -33 3 -21 10 -54 14 -74 8 -38 5 -197 -4 -238 -55
-245 -199 -432 -411 -532 -87 -41 -111 -45 -325 -54 -126 -6 -140 -5 -215 19
-115 37 -198 89 -295 186 -144 143 -213 309 -213 510 1 128 20 217 73 325 101
209 292 355 525 401 77 15 242 12 310 -6z m-1162 -592 c-3 -24 -6 -86 -5 -138
1 -215 73 -419 209 -597 119 -157 300 -282 497 -342 37 -12 77 -21 89 -21 47
0 2 -14 -51 -16 -102 -3 -395 -15 -462 -19 -36 -2 -139 -6 -230 -10 -91 -3
-194 -8 -230 -10 -36 -2 -139 -6 -230 -10 -91 -4 -167 -7 -170 -7 -30 -2 -48
7 -61 30 -8 15 -38 64 -67 108 l-51 81 69 47 c38 26 101 80 142 120 199 197
313 461 321 743 l2 83 117 0 117 0 -6 -42z m-648 -1618 c12 -19 69 -109 125
-200 126 -202 273 -437 369 -588 l71 -113 -127 -61 c-71 -33 -162 -76 -203
-95 -109 -51 -203 -95 -305 -143 -170 -80 -257 -120 -261 -120 -2 0 -4 417 -4
927 l0 927 156 -250 c86 -137 166 -265 179 -284z m1994 383 c51 -82 115 -182
141 -223 27 -41 60 -92 72 -113 13 -21 123 -196 246 -388 122 -192 222 -352
222 -357 0 -5 -24 -19 -52 -32 -29 -13 -123 -57 -208 -98 -85 -41 -191 -91
-235 -112 -44 -21 -138 -65 -209 -99 -71 -34 -131 -59 -134 -56 -7 7 -9 35
-17 270 -4 110 -9 234 -10 275 -2 41 -6 158 -10 260 -3 102 -8 221 -10 265 -3
66 -10 264 -19 490 l-1 40 50 11 c28 7 57 12 65 13 10 1 51 -56 109 -146z"/>
<path d="M2209 5477 c-38 -17 -57 -35 -74 -70 -48 -95 24 -211 129 -209 70 1
118 35 140 100 39 115 -84 228 -195 179z"/>
<path d="M1529 5257 c-59 -27 -90 -74 -91 -137 -1 -103 119 -177 210 -129 132
69 96 260 -50 274 -24 2 -55 -1 -69 -8z"/>
<path d="M2255 4645 c-193 -83 -246 -92 -391 -66 -87 15 -154 23 -154 18 0 -2
-5 -29 -10 -58 -6 -30 -13 -68 -16 -86 -6 -35 -14 -31 99 -48 17 -3 43 -8 57
-11 14 -3 72 -7 130 -9 96 -4 113 -2 190 24 87 30 249 98 263 110 4 4 -9 44
-30 89 l-38 81 -100 -44z"/>
<path d="M4554 5211 c-88 -54 -102 -169 -29 -233 98 -86 245 -20 245 109 0
107 -126 179 -216 124z"/>
<path d="M3995 5127 c-108 -50 -119 -196 -19 -258 124 -76 270 55 208 187 -9
19 -29 43 -44 54 -37 26 -107 34 -145 17z"/>
<path d="M4612 4605 c-29 -13 -97 -41 -150 -61 -93 -35 -101 -36 -182 -30 -47
4 -121 13 -165 20 -44 8 -80 13 -81 12 0 0 -8 -39 -18 -85 -13 -64 -15 -86 -6
-91 7 -4 47 -13 89 -20 42 -7 87 -14 101 -17 69 -14 207 -5 270 17 99 33 280
111 280 120 0 14 -71 160 -78 160 -4 0 -31 -11 -60 -25z"/>
</g>
</svg>
