<?xml version="1.0" standalone="no"?>
<!DOCTYPE svg PUBLIC "-//W3C//DTD SVG 20010904//EN"
 "http://www.w3.org/TR/2001/REC-SVG-20010904/DTD/svg10.dtd">
<svg version="1.0" xmlns="http://www.w3.org/2000/svg"
 width="700.000000pt" height="700.000000pt" viewBox="0 0 700.000000 700.000000"
 preserveAspectRatio="xMidYMid meet">
<metadata>
Created by potrace 1.14, written by Peter Selinger 2001-2017
</metadata>
<g transform="translate(0.000000,700.000000) scale(0.100000,-0.100000)"
fill="#000000" stroke="none">
<path d="M3395 5873 c-74 -27 -138 -73 -387 -280 -124 -103 -277 -230 -339
-282 -63 -51 -123 -101 -134 -110 -11 -9 -56 -45 -100 -81 -44 -36 -89 -73
-100 -82 -11 -9 -146 -117 -300 -240 -285 -227 -395 -314 -744 -585 -246 -191
-241 -187 -391 -312 -171 -142 -362 -331 -388 -385 -26 -52 -28 -103 -5 -136
44 -64 78 -65 171 -2 53 35 546 413 652 499 8 7 128 98 265 204 138 105 277
213 310 239 53 42 63 46 78 35 17 -12 14 -18 -39 -87 -172 -222 -290 -487
-329 -738 -3 -25 -8 -57 -11 -71 -31 -200 -35 -449 -10 -649 53 -429 274 -843
614 -1150 121 -110 106 -97 192 -161 244 -181 518 -302 805 -354 206 -38 516
-40 715 -5 30 5 71 12 90 15 63 10 243 55 330 82 47 15 87 27 90 28 3 1 14 5
25 10 11 4 41 16 67 26 62 24 157 72 233 117 439 261 690 725 689 1272 -1 79
-11 249 -18 288 -2 9 -7 37 -11 62 -42 270 -123 575 -188 705 -106 213 -202
278 -321 218 -88 -45 -96 -100 -33 -230 110 -230 192 -478 213 -653 2 -19 7
-41 9 -49 25 -68 26 -443 1 -587 -64 -380 -278 -728 -567 -923 -249 -168 -565
-221 -989 -166 -222 28 -487 108 -695 210 -265 129 -466 289 -670 536 -83 100
-218 351 -269 499 -64 186 -98 395 -99 595 0 91 8 229 18 295 13 90 22 134 50
250 73 298 135 418 278 541 139 120 239 169 350 171 131 3 182 -15 407 -143
74 -42 175 -95 224 -118 98 -46 324 -125 401 -140 28 -6 61 -13 75 -16 163
-34 388 -31 541 9 229 58 415 167 623 366 127 121 123 121 262 -21 154 -156
301 -300 358 -351 116 -102 148 -142 177 -219 20 -52 26 -165 14 -249 -3 -19
-7 -62 -10 -95 -2 -33 -6 -89 -9 -125 -24 -304 -29 -536 -28 -1186 1 -385 5
-608 12 -640 37 -166 148 -216 390 -174 30 5 73 11 95 14 22 3 90 13 150 22
61 9 124 18 140 20 17 2 41 6 55 9 14 2 39 7 55 10 92 17 217 51 262 71 63 27
86 59 85 120 -3 124 -75 141 -427 99 -110 -12 -223 -27 -245 -31 -14 -3 -60
-7 -102 -9 -71 -4 -80 -2 -107 20 -48 41 -55 93 -56 430 0 296 6 468 30 810 3
39 8 198 11 355 3 157 7 295 10 308 5 27 19 28 78 1 58 -25 96 -19 132 24 22
27 25 37 20 75 -14 106 -46 141 -466 512 -58 51 -128 114 -157 139 -28 25 -73
65 -100 88 -48 43 -58 51 -147 126 -27 23 -72 62 -98 86 -99 89 -107 154 -31
242 37 42 47 72 33 99 -15 29 -50 25 -90 -11 -75 -66 -114 -79 -174 -59 -37
12 -64 32 -386 280 -478 368 -807 611 -877 646 -90 46 -162 54 -238 27z m292
-479 c76 -54 143 -102 148 -107 27 -21 126 -93 418 -303 362 -261 350 -241
147 -248 -135 -5 -244 11 -370 56 -179 63 -293 99 -363 114 -71 15 -84 17
-202 32 -93 12 -305 5 -410 -14 -118 -21 -229 -48 -345 -87 -139 -45 -190 -60
-190 -54 0 5 29 27 510 397 212 162 396 301 410 308 57 27 101 11 247 -94z
m-249 -579 c5 -6 14 -29 20 -51 13 -46 49 -69 93 -60 13 3 50 11 82 18 55 12
65 11 205 -24 257 -65 368 -81 552 -82 191 -1 308 14 395 50 38 15 -135 -174
-228 -250 -51 -41 -146 -90 -206 -106 -54 -14 -158 -15 -228 -1 -48 10 -89 8
-101 -3 -3 -3 -7 -28 -10 -56 -6 -68 -18 -73 -149 -66 -221 14 -400 64 -673
189 -30 14 -95 41 -145 61 -49 21 -103 43 -120 50 -16 8 -93 40 -170 71 -77
32 -144 61 -149 66 -17 15 244 128 335 144 16 3 60 12 97 19 71 15 115 21 227
32 39 3 71 7 72 8 8 7 94 -1 101 -9z"/>
<path d="M1230 3582 c-48 -15 -80 -37 -90 -63 -12 -27 -10 -97 4 -164 7 -36
18 -129 30 -250 17 -166 21 -347 21 -915 0 -694 1 -686 -57 -716 -38 -20 -177
-31 -343 -28 -409 8 -450 7 -522 -17 -59 -19 -72 -84 -27 -132 69 -74 229
-102 579 -100 470 3 563 5 595 13 50 13 95 61 110 116 20 72 16 1230 -5 1624
-2 25 -5 90 -9 145 -3 55 -9 138 -11 185 -9 140 -22 178 -76 231 -54 53 -149
87 -199 71z"/>
<path d="M2566 3553 c-16 -3 -47 -23 -71 -48 -38 -37 -44 -50 -51 -101 -10
-76 -9 -97 5 -166 23 -110 106 -178 201 -165 83 11 127 71 137 186 7 82 -13
159 -57 219 -48 66 -91 86 -164 75z"/>
<path d="M3817 3420 c-47 -9 -86 -37 -112 -81 -16 -28 -20 -52 -20 -129 0 -52
6 -116 13 -141 26 -87 99 -136 189 -126 84 9 130 68 140 176 9 96 -29 213 -84
263 -32 30 -85 45 -126 38z"/>
<path d="M2905 2775 c-14 -13 -25 -31 -25 -40 0 -58 107 -159 209 -199 60 -23
110 -30 222 -30 87 0 103 3 155 30 32 16 62 36 67 45 13 21 1 68 -19 76 -8 3
-49 -6 -92 -20 -102 -34 -193 -32 -272 5 -57 26 -66 34 -138 112 -49 52 -72
57 -107 21z"/>
<path d="M2602 2309 c-43 -16 -37 -59 17 -107 241 -216 426 -331 603 -377 80
-20 112 -23 233 -20 250 6 294 15 491 101 137 59 235 87 295 83 61 -5 96 33
89 96 -8 78 -124 88 -305 26 -108 -37 -280 -81 -385 -97 -84 -13 -303 -11
-380 3 -197 36 -323 95 -535 253 -48 36 -92 50 -123 39z"/>
</g>
</svg>
