<svg xmlns="http://www.w3.org/2000/svg" version="1.1" xmlns:xlink="http://www.w3.org/1999/xlink" xmlns:svgjs="http://svgjs.dev/svgjs" width="1000" height="1000"><g clip-path="url(#SvgjsClipPath1127)"><rect width="1000" height="1000" fill="#ffffff"></rect><g transform="matrix(8.29875518672199,0,0,8.29875518672199,100,100)"><svg xmlns="http://www.w3.org/2000/svg" version="1.1" xmlns:xlink="http://www.w3.org/1999/xlink" xmlns:svgjs="http://svgjs.dev/svgjs" width="96.4" height="96.4"><svg id="Ebene_1" xmlns="http://www.w3.org/2000/svg" version="1.1" viewBox="0 0 96.4 96.4">
  <!-- Generator: Adobe Illustrator 29.3.0, SVG Export Plug-In . SVG Version: 2.1.0 Build 146)  -->
  <defs>
    <style>
      .st0 {
        fill: #008b3f;
      }

      .st1 {
        fill: #3d2683;
      }

      .st2 {
        fill: #f7a701;
      }
    </style>
  <clipPath id="SvgjsClipPath1127"><rect width="1000" height="1000" x="0" y="0" rx="350" ry="350"></rect></clipPath></defs>
  <g id="Logo">
    <path class="st2" d="M69.4,30.4c2.7,2.6,9.6,8.9,13.6,12.1.8,1.1,2,2,1.8,3.5-.3.5-.8.8-1.3.7l-1.1-.9c-.2-.2-.6-.6-1.1-.9.2,6.9-.7,18.5-.4,25.7.1,2.6,0,3.1.4,3.8.3.5,4.4-.3,5.9-.5,4.4-.5,4.8-.7,6.4-.2.6.3.4,1.9,0,2.3-2.1.8-10.1,2.2-12.9,2.3-.5,0-3.2,0-3.3-1.6-1.1-10.7.3-25.2.3-27.9s.3-4,.3-5.6c0,0-6.3-6.3-10.3-10.2.8-1.1,1.3-1.7,1.8-2.6"></path>
    <path class="st2" d="M50,15.2c1.1.6,15.2,11.6,18.3,13.8-.4.2-3.6,1.5-3.7,1.6-.3,0-11.5-8.1-12.8-9.1-.3-.3-2.9-2.3-3.7-2.3s-4.7,3.4-5.2,3.6c0,0-31.8,24.3-33.6,26-.7.6-2.5,1.7-2.9,1.2-.5-.6,0-2.3.4-2.7,3.9-4.3,21.2-17.4,21.6-17.7,3.1-2.4,13.9-11.7,14.6-12.2.6-.5,2.1-1.5,2.6-1.9.9-.6,2.8-1.2,4.4-.3"></path>
    <path class="st1" d="M33.4,51.1c-.2-1.8.6-3.5,1.8-3.7,1.3-.2,2.5,1.2,2.7,3,.2,1.8-.6,3.5-1.8,3.7-1.3.2-2.5-1.2-2.7-3"></path>
    <path class="st1" d="M50.8,53c-.2-1.8.6-3.5,1.8-3.7,1.3-.2,2.5,1.1,2.7,3,.2,1.9-.6,3.5-1.8,3.7-1.3.2-2.5-1.1-2.7-3"></path>
    <path class="st0" d="M68.3,28.8c-.5.3-2.5,1.3-3.4,1.7-4.4,1.7-10.8-.8-12-1.3-3.6.5-2.7.4-1.7-.7-7.5-1.8-15.3.8-19.1,3.5-2.2,1.6-4.8,4.1-5.3,5,.5.2.8.4,1.1.6.7-.5,2-1.6,2.8-2.1,1.3-.8,2.4-1.5,4.7-1.3.9.1,2.9.9,4.9,2.3.5.4,4.3,2.4,5.1,2.7,0-.4-.3-1-.4-1.5.9,1.3,2,1.9,2,1.9,5.4,1.4,8.6,1,12.5-.2-.5-.4-.9-.8-1.4-1.3.9.2,1.7.3,2.3.7,5.8-2.5,9.9-9.1,11.5-12.6-1.5,1.3-2,1.6-3.6,2.6M60.4,37c-1.1.3-3.4.1-5.6-.3.8,1,.7.9,1.4,1.8-2,.7-7.2,0-10.3-1.4-.9-.4-2.2-1.7-2.8-2.5,0,.9.1,1.1.2,1.8-2.4-.9-5-3.5-9.2-3.8,3.1-2,8-3.9,14.4-3.3.3.1-.7.8-1.1,2.2,1.2-.7,2.6-1,4.1-1,5.1,1.5,11,3,16.7-.3-2.4,3.1-5.2,5.8-7.8,6.8"></path>
    <path class="st2" d="M17.5,47.3c.4,0,2.1,1.8,2.1,2.1.6,8.7.9,28.9.3,30-.7,1.4-4.2,1.2-4.6,1.1,0,0-11.7-.8-12.4-1.1-.4-.1-.7-1.4-.5-1.5.9-.4,5.3,0,7.9-.2,2.5,0,5.2.3,5.8-.9.4-.7,0-18.5-.5-26.1,0-.6-.5-2.6-.2-3.1.4-.6,1.4-.4,2.2-.3"></path>
    <path class="st1" d="M27,37c0,.5.6.3.9.5-.3.9-.8,1.7-1.1,2.5-3.1,6.5-2.8,11.2-2.5,14.9,1.2,16.9,17.8,25.5,31.9,23.9,10.9-1.2,14.9-13.8,15-17.8.2-6.6-1.8-12.6-2.9-15.2-.3-.7-1.6-2.7-1.5-3.2,0,0,1.6-1.8,2.6-1,1.2,0,1.8,1.3,2.3,2.1.5.3,3.9,9.2,3.5,17.3-.6,11.7-8.9,20.6-27.2,20.7-11.5,0-19.8-8.9-21.1-10.7-1.4-1.9-5.2-7-5.7-15.7-.6-11.5,4.8-17.5,5.5-18.2h.2,0Z"></path>
    <path class="st1" d="M41.1,58.7c1.6,2.7,5,2.7,6.7,1.5.5-.4.6-.3.8,0,.2.2.3.9,0,1.1-4.2,2.1-8,0-9-2-.2-.4.2-1,.8-1,0,0,.4,0,.7.5"></path>
    <path class="st1" d="M37.6,66.2c4.5,4.4,14.4,4.1,19.1,1.3.2,0,2.5-.2,3.1.3.2.2,0,2-1.9,1.6-.6,0-1.5-.1-1.9.1-5.9,4.1-12.9,1.7-14.2,1.2-2.4-1-4.9-3.8-5.2-4.1-.5-.4-2-1-1.3-1.6.6-.5,1.8.4,2.4,1"></path>
  </g>
</svg></svg></g></g></svg>